<svg xmlns="http://www.w3.org/2000/svg" xmlns:xlink="http://www.w3.org/1999/xlink" width="400" height="400" version="1.1" viewBox="0 0 400 400"><title>applaunchwiki_tinted_opaque</title><defs><path id="path-1" d="M0,0 L400,0 L400,400 L0,400 L0,0 Z"/><path id="path-2" d="M0,0 L400,0 L400,400 L0,400 L0,0 Z"/></defs><g id="applaunchwiki_tinted_opaque" fill="none" fill-rule="evenodd" stroke="none" xlink:href="#path-1"><use fill="#262626" xlink:href="#path-1"/><g id="logo" fill="#FAF9F1" xlink:href="#path-2"><path id="Shape" d="M164.586133,50.0004607 L234.414269,50.0004607 L238.801024,50.0083856 C249.225813,50.0446169 258.359719,50.2347175 265.963318,51.232149 C276.029967,52.5541075 285.680435,55.5352267 293.506468,63.180176 C301.334036,70.8252752 304.385513,80.250586 305.740019,90.0832993 C306.862626,98.2517844 306.985773,108.229398 306.999282,119.70387 L306.999282,280.297474 C306.985773,291.772113 306.862626,301.749547 305.740019,309.918566 C304.385513,319.751129 301.334036,329.17719 293.506468,336.821239 C285.680435,344.466789 276.029967,347.447308 265.963318,348.770316 C257.063736,349.937102 246.06773,349.998512 233.359197,350.001744 L163.479836,350.001744 C151.683173,349.987884 141.428258,349.870429 133.037635,348.770316 C122.970833,347.447308 113.321132,344.466789 105.494025,336.821239 C97.6670711,329.17719 94.6149799,319.751129 93.2615493,309.918566 C92.1363099,301.734959 92.0146624,291.736473 92.0015113,280.235988 L92.0015113,119.765355 L92.0088083,116.570744 C92.0462919,106.406245 92.2418011,97.499208 93.2615493,90.0832993 C94.6149799,80.250586 97.6670711,70.8252752 105.494025,63.180176 C113.321132,55.5352267 122.970833,52.5541075 133.037635,51.232149 C141.689441,50.0971408 152.323602,50.0075348 164.586133,50.0004607 Z M205.98096,274.164969 L190.73266,274.164969 C182.311024,274.164969 175.48436,280.90548 175.48436,289.220835 C175.48436,297.53619 182.311024,304.276701 190.73266,304.276701 L205.98096,304.276701 C214.402596,304.276701 221.22926,297.53619 221.22926,289.220835 C221.22926,280.90548 214.402596,274.164969 205.98096,274.164969 Z M199.650787,120.658601 C194.124071,120.658601 189.644059,125.052612 189.644059,130.472795 L189.644059,185.29292 L176.70646,172.604149 C172.798532,168.771706 166.462672,168.771706 162.554745,172.604149 C158.646917,176.436591 158.646917,182.650939 162.554745,186.483382 L191.704444,215.072129 C191.854545,215.219342 192.008648,215.362629 192.165754,215.500028 C193.998987,217.524696 196.672784,218.800542 199.650787,218.800542 C202.628789,218.800542 205.302587,217.524696 207.135819,215.500028 C207.292925,215.362629 207.447029,215.219342 207.59713,215.072129 L236.746729,186.483382 C240.654356,182.650939 240.654356,176.436591 236.746729,172.604149 C232.839101,168.771706 226.502841,168.771706 222.595214,172.604149 L209.657515,185.29292 L209.657515,130.472795 C209.657515,125.052612 205.177503,120.658601 199.650787,120.658601 Z"/></g></g></svg>