<svg xmlns="http://www.w3.org/2000/svg" xmlns:xlink="http://www.w3.org/1999/xlink" width="400" height="400" version="1.1" viewBox="0 0 400 400"><title>applaunchwiki_light_transparent</title><defs><path id="path-1" d="M0,0 L400,0 L400,400 L0,400 L0,0 Z"/></defs><g id="applaunchwiki_light_transparent" fill="none" fill-rule="evenodd" stroke="none" xlink:href="#path-1"><path id="Shape" fill="#CB6441" d="M209.562719,51.1313557 C218.796052,52.3450255 227.647657,55.0819451 234.825851,62.1006551 C242.005454,69.1195029 244.80433,77.7727354 246.04671,86.799998 C247.137171,94.74205 247.199483,104.546914 247.203043,115.874075 L247.203043,259.552781 C247.201567,264.248685 247.189994,268.682892 247.099256,272.831222 L239.694531,265.561118 C236.110101,262.042611 230.298722,262.042611 226.714292,265.561118 C223.129954,269.079624 223.129954,274.784921 226.714292,278.303428 L244.629686,295.888828 C242.956549,302.243424 240.051623,308.218235 234.825851,313.326297 C227.647657,320.345558 218.796052,323.081927 209.562719,324.296561 C201.438714,325.362668 191.410096,325.423588 179.823977,325.427069 L117.379204,325.427069 C105.793058,325.423588 95.7642116,325.362668 87.640605,324.296561 C78.407131,323.081927 69.5562311,320.345558 62.3770505,313.326297 C55.1980107,306.308413 52.3985712,297.654492 51.1571774,288.627367 C50.1322338,281.166164 50.0150974,272.06175 50.0017104,261.595448 L50.0017104,113.831442 C50.0150974,103.365288 50.1322338,94.2607135 51.1571774,86.799998 C52.3985712,77.7727354 55.1980107,69.1195029 62.3770505,62.1006551 C69.5562311,55.0819451 78.407131,52.3450255 87.640605,51.1313557 C95.7640788,50.0646536 105.792917,50.0036992 117.378827,50.0002161 L179.823977,50.0002161 C191.410096,50.0036992 201.438714,50.0646536 209.562719,51.1313557 Z M154.545691,255.802542 L140.559644,255.802542 C132.835149,255.802542 126.573596,261.990901 126.573596,269.6251 C126.573596,277.259299 132.835149,283.447658 140.559644,283.447658 L154.545691,283.447658 C162.270186,283.447658 168.531739,277.259299 168.531739,269.6251 C168.531739,261.990901 162.270186,255.802542 154.545691,255.802542 Z"/><path id="Combined-Shape" fill="#3D3826" d="M260.41005,175.000302 C277.214571,175.000302 291.329579,175.868304 302.964719,178.393735 C314.701991,180.941303 324.456622,185.290326 331.960736,192.619169 C339.46485,199.948011 343.917506,209.475559 346.526386,220.938523 C349.111972,232.302263 350.000712,246.088096 350.000712,262.50051 C350.000712,278.912924 349.111972,292.698581 346.526386,304.062233 C343.917506,315.525636 339.46485,325.052658 331.960736,332.381676 C324.456622,339.710693 314.701991,344.059453 302.964719,346.607459 C291.329579,349.132715 277.214571,350.000717 260.41005,350.000717 C243.60553,350.000717 229.490342,349.132715 217.855113,346.607459 C206.118289,344.059453 196.36312,339.710693 188.859185,332.381676 C181.355251,325.052658 176.902326,315.525636 174.293894,304.062233 C171.708128,292.698581 170.819389,278.912924 170.819389,262.50051 C170.819389,246.088096 171.708128,232.302263 174.293894,220.938523 C176.902326,209.475559 181.355251,199.948011 188.859185,192.619169 C196.36312,185.290326 206.118289,180.941303 217.855113,178.393735 C229.490342,175.868304 243.60553,175.000302 260.41005,175.000302 Z M260.739529,217.870711 C255.670314,217.870711 251.561157,221.904785 251.561157,226.880971 L251.561157,277.210483 L239.694531,265.561118 C236.110101,262.042611 230.298722,262.042611 226.714292,265.561118 C223.129954,269.079624 223.129954,274.784921 226.714292,278.303428 L253.450984,304.550316 C253.588659,304.68547 253.730006,304.81702 253.874107,304.943163 C255.555585,306.80198 258.008046,307.973314 260.739529,307.973314 C263.471013,307.973314 265.923474,306.80198 267.604952,304.943163 C267.749053,304.81702 267.8904,304.68547 268.028075,304.550316 L294.764675,278.303428 C298.348829,274.784921 298.348829,269.079624 294.764675,265.561118 C291.18052,262.042611 285.368775,262.042611 281.78462,265.561118 L269.917902,277.210483 L269.917902,226.880971 C269.917902,221.904785 265.808745,217.870711 260.739529,217.870711 Z"/></g></svg>