<?xml version="1.0" encoding="UTF-8"?>
<svg width="400px" height="400px" viewBox="0 0 400 400" version="1.1" xmlns="http://www.w3.org/2000/svg" xmlns:xlink="http://www.w3.org/1999/xlink">
    <title>applaunchwiki_light_macos</title>
    <defs>
        <path d="M0,0 L400,0 L400,400 L0,400 L0,0 Z" id="path-1"></path>
        <path d="M0,0 L300,0 L300,300 L0,300 L0,0 Z" id="path-2"></path>
    </defs>
    <g id="applaunchwiki_light_macos" stroke="none" fill="none" xlink:href="#path-1" fill-rule="evenodd">
        <path d="M140.555408,37 L260.444592,37 C296.105342,37 309.036791,40.7130244 322.073828,47.6853082 C335.110865,54.6575919 345.342408,64.8891348 352.314692,77.9261719 C359.286976,90.9632089 363,103.894658 363,139.555408 L363,259.444592 C363,295.105342 359.286976,308.036791 352.314692,321.073828 C345.342408,334.110865 335.110865,344.342408 322.073828,351.314692 C309.036791,358.286976 296.105342,362 260.444592,362 L140.555408,362 C104.894658,362 91.9632089,358.286976 78.9261719,351.314692 C65.8891348,344.342408 55.6575919,334.110865 48.6853082,321.073828 C41.7130244,308.036791 38,295.105342 38,259.444592 L38,139.555408 C38,103.894658 41.7130244,90.9632089 48.6853082,77.9261719 C55.6575919,64.8891348 65.8891348,54.6575919 78.9261719,47.6853082 C91.9632089,40.7130244 104.894658,37 140.555408,37 Z" id="Regular---Large" fill="#FAF9F1"></path>
        <g id="-logo" transform="translate(51, 50)" xlink:href="#path-2">
            <path d="M157.172039,38.3485168 C164.097039,39.2587691 170.735742,41.3114588 176.119388,46.5754913 C181.504091,51.8396272 183.603248,58.3295516 184.535033,65.0999985 C185.315703,70.7857857 185.39377,77.7445587 185.401577,85.7541975 L185.401577,195.815964 C185.398558,198.912982 185.385036,201.852855 185.324456,204.622787 L179.770898,199.170838 C177.082575,196.531958 172.724042,196.531958 170.035719,199.170838 C167.347466,201.809718 167.347466,206.088691 170.035719,208.727571 L183.4722,221.916868 C182.217337,226.682723 180.038649,231.163743 176.119388,234.994723 C170.735742,240.259169 164.097039,242.311445 157.172039,243.22242 C150.925172,244.042192 143.176789,244.069518 134.20745,244.070429 L89.6271439,244.07046 C80.2617551,244.07046 72.1924135,244.07046 65.7304537,243.22242 C58.8053482,242.311445 52.1671733,240.259169 46.7827879,234.994723 C41.3985081,229.73131 39.2989284,223.240869 38.367883,216.470526 C37.5867768,210.784367 37.5086662,203.825724 37.5008551,195.815964 L37.5008551,85.7541975 C37.5086662,77.7445587 37.5867768,70.7857857 38.367883,65.0999985 C39.2989284,58.3295516 41.3985081,51.8396272 46.7827879,46.5754913 C52.1671733,41.3114588 58.8053482,39.2587691 65.7304537,38.3485168 C71.7615176,37.5565713 79.1928816,37.5037749 87.7711616,37.5002552 L135.130946,37.5002552 C143.709375,37.5037749 151.140581,37.5565713 157.172039,38.3485168 Z M115.909269,191.851906 L105.419733,191.851906 C99.6263619,191.851906 94.9301967,196.493176 94.9301967,202.218825 C94.9301967,207.944474 99.6263619,212.585744 105.419733,212.585744 L115.909269,212.585744 C121.702639,212.585744 126.398805,207.944474 126.398805,202.218825 C126.398805,196.493176 121.702639,191.851906 115.909269,191.851906 Z" id="Shape" fill="#CB6441"></path>
            <path d="M195.307538,131.250226 C207.910928,131.250226 218.497185,131.901228 227.223539,133.795301 C236.026493,135.705978 243.342467,138.967745 248.970552,144.464377 C254.598637,149.961008 257.938129,157.106669 259.894789,165.703893 C261.833979,174.226697 262.500534,184.566072 262.500534,196.875382 C262.500534,209.184693 261.833979,219.523936 259.894789,228.046675 C257.938129,236.644227 254.598637,243.789494 248.970552,249.286257 C243.342467,254.78302 236.026493,258.04459 227.223539,259.955595 C218.497185,261.849537 207.910928,262.500538 195.307538,262.500538 C182.704148,262.500538 172.117757,261.849537 163.391335,259.955595 C154.588717,258.04459 147.27234,254.78302 141.644389,249.286257 C136.016438,243.789494 132.676745,236.644227 130.720421,228.046675 C128.781096,219.523936 128.114542,209.184693 128.114542,196.875382 C128.114542,184.566072 128.781096,174.226697 130.720421,165.703893 C132.676745,157.106669 136.016438,149.961008 141.644389,144.464377 C147.27234,138.967745 154.588717,135.705978 163.391335,133.795301 C172.117757,131.901228 182.704148,131.250226 195.307538,131.250226 Z M195.554647,163.403033 C191.752736,163.403033 188.670868,166.428588 188.670868,170.160728 L188.670868,207.907862 L179.770898,199.170838 C177.082575,196.531958 172.724042,196.531958 170.035719,199.170838 C167.347466,201.809718 167.347466,206.088691 170.035719,208.727571 L190.088238,228.412737 C190.191494,228.514102 190.297505,228.612765 190.40558,228.707373 C191.666688,230.101485 193.506034,230.979985 195.554647,230.979985 C197.60326,230.979985 199.442606,230.101485 200.703714,228.707373 C200.811789,228.612765 200.9178,228.514102 201.021056,228.412737 L221.073506,208.727571 C223.761622,206.088691 223.761622,201.809718 221.073506,199.170838 C218.38539,196.531958 214.026581,196.531958 211.338465,199.170838 L202.438427,207.907862 L202.438427,170.160728 C202.438427,166.428588 199.356558,163.403033 195.554647,163.403033 Z" id="Combined-Shape" fill="#3D3826"></path>
        </g>
    </g>
</svg>