<svg xmlns="http://www.w3.org/2000/svg" xmlns:xlink="http://www.w3.org/1999/xlink" width="400" height="400" version="1.1" viewBox="0 0 400 400"><title>basepack_tinted_opaque</title><defs><path id="path-1" d="M0,0 L400,0 L400,400 L0,400 L0,0 Z"/><path id="path-2" d="M0,0 L400,0 L400,400 L0,400 L0,0 Z"/></defs><g id="basepack_tinted_opaque" fill="none" fill-rule="evenodd" stroke="none" xlink:href="#path-1"><use fill="#262626" xlink:href="#path-1"/><g id="logo" fill="#FAF9F1" xlink:href="#path-2"><path id="Shape" d="M295.32181,147.992242 L295.32181,209.906942 L336.592703,209.906942 C347.232919,209.906942 353.619898,221.790069 347.790682,230.742907 L277.32743,338.977827 C270.351834,349.693541 252.938952,345.403913 252.938952,331.68164 L252.938952,271.97179 L211.099379,271.97179 C205.75116,271.97179 201.502945,268.898935 199.413712,264.723879 L228.672074,264.721128 C237.30372,264.707256 244.822277,264.599745 251.002417,263.766536 C258.606214,262.738893 265.89565,260.423783 271.807008,254.485125 C277.719525,248.547631 280.024444,241.225966 281.047564,233.58855 C281.880945,227.352347 281.985118,219.759334 281.99814,211.038991 L282,207.23335 L282.000694,135.289305 C288.621148,134.995419 295.32181,139.907777 295.32181,147.992242 Z M251.002417,55.9571813 C258.606214,56.9840088 265.89565,59.2995846 271.807008,65.2378936 C277.719525,71.176086 280.024444,78.4971691 281.047564,86.134701 C281.880945,92.3704963 281.985118,99.9636369 281.99814,108.68394 L282.000694,112.489552 L282.000694,135.289305 C278.292826,135.453899 274.610118,137.251535 272.143796,141.03956 L200.158326,251.613365 C197.393204,255.860785 197.441802,260.783276 199.413712,264.723879 L103.327868,264.721128 C94.696183,264.707256 87.1775026,264.599745 80.9977663,263.766536 C73.3937378,262.738893 66.1048811,260.423783 60.1928278,254.485125 C54.2806584,248.547631 51.9752755,241.225966 50.952968,233.58855 C50.119121,227.352347 50.0148901,219.759334 50.0007852,211.038991 L50.0007852,109.622764 C50.0083757,100.507851 50.0893407,92.5933089 50.952968,86.134701 C51.9752755,78.4971691 54.2806584,71.176086 60.1928278,65.2377771 C66.1048811,59.2995846 73.3937378,56.9840088 80.9977663,55.9571813 C87.4063817,55.0926305 95.2548643,55.0089642 104.291315,55.0008675 L227.708433,55.0008675 L230.474449,55.0065872 C238.353363,55.0346312 245.256386,55.1820668 251.002417,55.9571813 Z M212.726761,182.800065 L178.090141,182.800065 C171.713539,182.800065 166.544601,187.934842 166.544601,194.269301 C166.544601,200.603761 171.713539,205.738538 178.090141,205.738538 L212.726761,205.738538 C219.103362,205.738538 224.2723,200.603761 224.2723,194.269301 C224.2723,187.934842 219.103362,182.800065 212.726761,182.800065 Z M111.116449,116.291563 C106.598116,120.823981 106.598116,128.172316 111.116449,132.704734 L137.644603,159.315583 L111.116449,185.926548 C106.598116,190.458617 106.598116,197.807417 111.116449,202.339486 C115.634666,206.871555 122.960166,206.871555 127.478499,202.339486 L156.402631,173.324958 C164.116181,165.587363 164.116181,153.043802 156.402631,145.306208 L127.478499,116.291563 C122.960282,111.759262 115.634666,111.759262 111.116449,116.291563 Z"/></g></g></svg>