<svg xmlns="http://www.w3.org/2000/svg" xmlns:xlink="http://www.w3.org/1999/xlink" width="400" height="400" version="1.1" viewBox="0 0 400 400"><title>basepack_dark_macos</title><defs><path id="path-1" d="M0,0 L400,0 L400,400 L0,400 L0,0 Z"/><path id="path-2" d="M0,0 L300,0 L300,300 L0,300 L0,0 Z"/></defs><g id="basepack_dark_macos" fill="none" fill-rule="evenodd" stroke="none" xlink:href="#path-1"><path id="Regular---Large" fill="#262626" d="M140.555408,37 L260.444592,37 C296.105342,37 309.036791,40.7130244 322.073828,47.6853082 C335.110865,54.6575919 345.342408,64.8891348 352.314692,77.9261719 C359.286976,90.9632089 363,103.894658 363,139.555408 L363,259.444592 C363,295.105342 359.286976,308.036791 352.314692,321.073828 C345.342408,334.110865 335.110865,344.342408 322.073828,351.314692 C309.036791,358.286976 296.105342,362 260.444592,362 L140.555408,362 C104.894658,362 91.9632089,358.286976 78.9261719,351.314692 C65.8891348,344.342408 55.6575919,334.110865 48.6853082,321.073828 C41.7130244,308.036791 38,295.105342 38,259.444592 L38,139.555408 C38,103.894658 41.7130244,90.9632089 48.6853082,77.9261719 C55.6575919,64.8891348 65.8891348,54.6575919 78.9261719,47.6853082 C91.9632089,40.7130244 104.894658,37 140.555408,37 Z"/><g id="-logo" transform="translate(51, 50)" xlink:href="#path-2"><path id="Shape" fill="#D77757" d="M83.3373368,139.444911 C79.9485873,142.843963 79.9485873,148.355563 83.3373368,151.754615 C86.7259996,155.153667 92.2201247,155.153667 95.6088742,151.754615 L117.301974,129.993718 C123.087136,124.190522 123.087136,114.782852 117.301974,108.979656 L95.6088742,87.2186724 C92.2202114,83.8194463 86.7259996,83.8194463 83.3373368,87.2186724 C79.9485873,90.6179855 79.9485873,96.1292372 83.3373368,99.5285503 L103.233452,119.486687 L83.3373368,139.444911 Z M133.567606,137.100049 C128.785154,137.100049 124.908451,140.951132 124.908451,145.701976 C124.908451,150.452821 128.785154,154.303904 133.567606,154.303904 L159.54507,154.303904 C164.327522,154.303904 168.204225,150.452821 168.204225,145.701976 C168.204225,140.951132 164.327522,137.100049 159.54507,137.100049 L133.567606,137.100049 Z M211.5,84.3671637 C211.5,84.5581865 211.5,84.75 211.5,84.9424166 L211.5,155.425013 C211.5,163.171659 211.5,169.846096 210.785673,175.191413 C210.018333,180.919474 208.289644,186.410723 203.855256,190.863843 C199.421738,195.317837 193.95466,197.05417 188.251813,197.824902 C182.930025,198.542388 176.284968,198.542388 168.572422,198.542388 L80.4275418,198.542388 C72.7149953,198.542388 66.0697643,198.542388 60.7483247,197.824902 C55.0453033,197.05417 49.5786608,195.317837 45.1446208,190.863843 C40.7104938,186.410723 38.9814566,180.919474 38.214726,175.191413 C37.5,169.846096 37.5,163.171659 37.5,155.425013 L37.5,84.3673385 C37.5,76.6206923 37.5,69.9460806 38.214726,64.6010258 C38.9814566,58.8728768 40.7104938,53.3820645 45.1446208,48.9283328 C49.5786608,44.4746885 55.0453033,42.7380066 60.7483247,41.967886 C66.0697643,41.25 72.7149083,41.25 80.4273678,41.25 L167.999962,41.25 C168.191362,41.25 168.382762,41.25 168.572422,41.25 C176.284968,41.25 182.930025,41.25 188.251813,41.967886 C193.95466,42.7380066 199.421738,44.4746885 203.855256,48.9284202 C208.289644,53.3820645 210.018333,58.8728768 210.785673,64.6010258 C211.5,69.9459932 211.5,76.6206049 211.5,84.3671637 Z"/><path id="Path" fill="#FAF9F1" d="M204.107847,105.77967 C209.26033,97.8659694 221.491358,101.53498 221.491358,110.994181 L221.491358,157.430206 L252.444527,157.430206 C260.42469,157.430206 265.214923,166.342552 260.843012,173.05718 L207.995573,254.23337 C202.763876,262.270156 189.704214,259.052935 189.704214,248.76123 L189.704214,203.978843 L158.324534,203.978843 C150.527454,203.978843 145.847675,195.270684 150.118745,188.710024 L204.107847,105.77967 Z"/></g></g></svg>