<?xml version="1.0" encoding="UTF-8"?>
<svg width="400px" height="400px" viewBox="0 0 400 400" version="1.1" xmlns="http://www.w3.org/2000/svg" xmlns:xlink="http://www.w3.org/1999/xlink">
    <title>basepack_dark_transparent</title>
    <defs>
        <path d="M0,0 L400,0 L400,400 L0,400 L0,0 Z" id="path-1"></path>
    </defs>
    <g id="basepack_dark_transparent" stroke="none" fill="none" xlink:href="#path-1" fill-rule="evenodd">
        <path d="M111.116449,185.926548 C106.598116,190.458617 106.598116,197.807417 111.116449,202.339486 C115.634666,206.871555 122.960166,206.871555 127.478499,202.339486 L156.402631,173.324958 C164.116181,165.587363 164.116181,153.043802 156.402631,145.306208 L127.478499,116.291563 C122.960282,111.759262 115.634666,111.759262 111.116449,116.291563 C106.598116,120.823981 106.598116,128.172316 111.116449,132.704734 L137.644603,159.315583 L111.116449,185.926548 Z M178.090141,182.800065 C171.713539,182.800065 166.544601,187.934842 166.544601,194.269301 C166.544601,200.603761 171.713539,205.738538 178.090141,205.738538 L212.726761,205.738538 C219.103362,205.738538 224.2723,200.603761 224.2723,194.269301 C224.2723,187.934842 219.103362,182.800065 212.726761,182.800065 L178.090141,182.800065 Z M282,112.489552 C282,112.744249 282,113 282,113.256555 L282,207.23335 C282,217.562212 282,226.461461 281.047564,233.58855 C280.024444,241.225966 277.719525,248.547631 271.807008,254.485125 C265.89565,260.423783 258.606214,262.738893 251.002417,263.766536 C243.9067,264.723183 235.046624,264.723183 224.763229,264.723183 L107.236722,264.723183 C96.9533271,264.723183 88.0930191,264.723183 80.9977663,263.766536 C73.3937378,262.738893 66.1048811,260.423783 60.1928278,254.485125 C54.2806584,248.547631 51.9752755,241.225966 50.952968,233.58855 C50,226.461461 50,217.562212 50,207.23335 L50,112.489785 C50,102.160923 50,93.2614408 50.952968,86.134701 C51.9752755,78.4971691 54.2806584,71.176086 60.1928278,65.2377771 C66.1048811,59.2995846 73.3937378,56.9840088 80.9977663,55.9571813 C88.0930191,55 96.9532111,55 107.23649,55 L223.999949,55 C224.255149,55 224.510349,55 224.763229,55 C235.046624,55 243.9067,55 251.002417,55.9571813 C258.606214,56.9840088 265.89565,59.2995846 271.807008,65.2378936 C277.719525,71.176086 280.024444,78.4971691 281.047564,86.134701 C282,93.2613242 282,102.160807 282,112.489552 Z" id="Shape" fill="#D77757"></path>
        <path d="M272.143796,141.03956 C279.013773,130.487959 295.32181,135.379973 295.32181,147.992242 L295.32181,209.906942 L336.592703,209.906942 C347.232919,209.906942 353.619898,221.790069 347.790682,230.742907 L277.32743,338.977827 C270.351834,349.693541 252.938952,345.403913 252.938952,331.68164 L252.938952,271.97179 L211.099379,271.97179 C200.703272,271.97179 194.463567,260.360912 200.158326,251.613365 L272.143796,141.03956 Z" id="Path" fill="#FAF9F1"></path>
    </g>
</svg>