<?xml version="1.0" encoding="UTF-8"?>
<svg width="400px" height="400px" viewBox="0 0 400 400" version="1.1" xmlns="http://www.w3.org/2000/svg" xmlns:xlink="http://www.w3.org/1999/xlink">
    <title>blog_dark_transparent</title>
    <defs>
        <path d="M0,0 L400,0 L400,400 L0,400 L0,0 Z" id="path-1"></path>
    </defs>
    <g id="blog_dark_transparent" stroke="none" fill="none" xlink:href="#path-1" fill-rule="nonzero">
        <path d="M50,297.78683 C50,297.78683 50,297.78683 50,297.78683 C50,297.78683 50,297.78683 50,297.78683 L50,101 C50,101 50,101 50,101 C50,101 50,101 50,101 L123.450605,101 C143.41025,101 159.474543,106.584516 171.643483,117.753549 C183.812423,128.922581 189.896894,144.671239 189.896894,164.999523 L189.896894,164.999523 C189.896894,185.486699 183.843276,201.234642 171.736042,212.24335 C159.628807,223.252058 143.410967,228.756412 123.082523,228.756412 L67.4957218,228.756412 L67.4957218,202.393057 L121.866346,202.393057 C133.820034,202.393057 143.130063,199.479303 149.796432,193.651795 C156.462802,187.824287 159.795986,178.355123 159.795986,165.244304 L159.795986,165.244304 C159.795986,152.58726 156.149251,143.365024 148.855779,137.577598 C141.562307,131.790171 131.762221,128.896457 119.455519,128.896457 L80.3097021,128.896457 L80.3097021,297.78683 C80.3097021,297.78683 80.3097021,297.78683 80.3097021,297.78683 C80.3097021,297.78683 80.3097021,297.78683 80.3097021,297.78683 L50,297.78683 Z" id="Path" fill="#CB6441"></path>
        <path d="M245.554165,297.78683 C245.554165,297.78683 245.554165,297.78683 245.554165,297.78683 C245.554165,297.78683 245.554165,297.78683 245.554165,297.78683 L245.554165,113.689968 L275.861714,113.689968 L275.861714,297.78683 C275.861714,297.78683 275.861714,297.78683 275.861714,297.78683 C275.861714,297.78683 275.861714,297.78683 275.861714,297.78683 L245.554165,297.78683 Z M184.340664,128.759036 C184.340664,128.759036 184.340664,128.759036 184.340664,128.759036 C184.340664,128.759036 184.340664,128.759036 184.340664,128.759036 L184.340664,101 C184.340664,101 184.340664,101 184.340664,101 C184.340664,101 184.340664,101 184.340664,101 L336.659778,101 C336.659778,101 336.659778,101 336.659778,101 C336.659778,101 336.659778,101 336.659778,101 L336.659778,128.759036 C336.659778,128.759036 336.659778,128.759036 336.659778,128.759036 C336.659778,128.759036 336.659778,128.759036 336.659778,128.759036 L184.340664,128.759036 Z" id="Shape" fill="#CB6441"></path>
        <path d="M329.497201,299 C323.587803,299 318.692961,297.124061 314.812677,293.372182 C310.932392,289.620303 308.99225,284.831325 308.99225,279.005249 C308.99225,273.249314 310.932392,268.496839 314.812677,264.747823 C318.692961,260.998807 323.587803,259.124299 329.497201,259.124299 C335.405164,259.124299 340.299288,260.998807 344.179573,264.747823 C348.059858,268.496839 350,273.249314 350,279.005249 C350,284.831325 348.059858,289.620303 344.179573,293.372182 C340.299288,297.124061 335.405164,299 329.497201,299 Z" id="Path" fill="#FAF9F1"></path>
    </g>
</svg>