<?xml version="1.0" encoding="UTF-8"?>
<svg width="400px" height="400px" viewBox="0 0 400 400" version="1.1" xmlns="http://www.w3.org/2000/svg" xmlns:xlink="http://www.w3.org/1999/xlink">
    <title>blog_light_macos</title>
    <defs>
        <path d="M0,0 L400,0 L400,400 L0,400 L0,0 Z" id="path-1"></path>
        <path d="M0,0 L300,0 L300,300 L0,300 L0,0 Z" id="path-2"></path>
    </defs>
    <g id="blog_light_macos" stroke="none" fill="none" xlink:href="#path-1">
        <path d="M140.555408,37 L260.444592,37 C296.105342,37 309.036791,40.7130244 322.073828,47.6853082 C335.110865,54.6575919 345.342408,64.8891348 352.314692,77.9261719 C359.286976,90.9632089 363,103.894658 363,139.555408 L363,259.444592 C363,295.105342 359.286976,308.036791 352.314692,321.073828 C345.342408,334.110865 335.110865,344.342408 322.073828,351.314692 C309.036791,358.286976 296.105342,362 260.444592,362 L140.555408,362 C104.894658,362 91.9632089,358.286976 78.9261719,351.314692 C65.8891348,344.342408 55.6575919,334.110865 48.6853082,321.073828 C41.7130244,308.036791 38,295.105342 38,259.444592 L38,139.555408 C38,103.894658 41.7130244,90.9632089 48.6853082,77.9261719 C55.6575919,64.8891348 65.8891348,54.6575919 78.9261719,47.6853082 C91.9632089,40.7130244 104.894658,37 140.555408,37 Z" id="Regular---Large" fill="#FAF9F1" fill-rule="evenodd"></path>
        <g id="-logo" transform="translate(50, 50)" xlink:href="#path-2" fill-rule="nonzero">
            <path d="M37.5,223.340123 L37.5,75.75 L92.5879535,75.75 C107.557687,75.75 119.605907,79.9383872 128.732612,88.3151616 C137.859317,96.6919361 142.42267,108.50343 142.42267,123.749642 C142.42267,139.115024 137.882457,150.925981 128.802031,159.182512 C119.721605,167.439043 107.558226,171.567309 92.3118922,171.567309 L50.6217913,171.567309 L50.6217913,151.794793 L91.3997598,151.794793 C100.365026,151.794793 107.347547,149.609478 112.347324,145.238846 C117.347101,140.868215 119.84699,133.766343 119.84699,123.933228 C119.84699,114.440445 117.111938,107.523768 111.641834,103.183198 C106.17173,98.8426279 98.8216654,96.6723428 89.5916389,96.6723428 L60.2322766,96.6723428 L60.2322766,223.340123 L37.5,223.340123 Z" id="Path" fill="#CB6441"></path>
            <path d="M184.165623,223.340123 L184.165623,85.2674758 L206.896286,85.2674758 L206.896286,223.340123 L184.165623,223.340123 Z M138.255498,96.5692771 L138.255498,75.75 L252.494833,75.75 L252.494833,96.5692771 L138.255498,96.5692771 Z" id="Shape" fill="#CB6441"></path>
            <path d="M247.122901,224.25 C242.690852,224.25 239.019721,222.843045 236.109508,220.029136 C233.199294,217.215227 231.744187,213.623494 231.744187,209.253937 C231.744187,204.936986 233.199294,201.372629 236.109508,198.560867 C239.019721,195.749105 242.690852,194.343224 247.122901,194.343224 C251.553873,194.343224 255.224466,195.749105 258.13468,198.560867 C261.044893,201.372629 262.5,204.936986 262.5,209.253937 C262.5,213.623494 261.044893,217.215227 258.13468,220.029136 C255.224466,222.843045 251.553873,224.25 247.122901,224.25 Z" id="Path" fill="#3D3826"></path>
        </g>
    </g>
</svg>