<svg xmlns="http://www.w3.org/2000/svg" xmlns:xlink="http://www.w3.org/1999/xlink" width="400" height="400" version="1.1" viewBox="0 0 400 400"><title>devmdx_tinted_transparent</title><defs><path id="path-1" d="M0,0 L400,0 L400,400 L0,400 L0,0 Z"/></defs><g id="devmdx_tinted_transparent" fill="none" fill-rule="nonzero" stroke="none" xlink:href="#path-1"><path id="Shape" fill="#FAF9F1" d="M50,168.2837 C149.836925,168.2837 230.754842,259.7885 230.754842,350 L170.503229,350 C170.503229,289.859 116.45753,228.4247 50,228.4247 L50,168.2837 Z M84.042161,50.1968 C223.404146,65.7431 334.236989,176.4929 349.812032,315.5693 C351.800336,333.5213 337.76171,350 319.686224,350 L291.428219,350 C291.428219,229.7177 170.503229,108.1427 50,108.1427 L50,79.9364 C50,61.8941 66.0871811,48.182 84.042161,50.1968 Z M50.4217613,289.566 C83.710778,289.566 110.673374,316.479 110.673374,349.707 L80.547569,349.707 C63.9181229,349.707 50.4217613,336.2355 50.4217613,319.6365 L50.4217613,289.566 Z"/></g></svg>