<svg xmlns="http://www.w3.org/2000/svg" xmlns:xlink="http://www.w3.org/1999/xlink" width="400" height="400" version="1.1" viewBox="0 0 400 400"><title>devmdx_light_transparent</title><defs><path id="path-1" d="M0,0 L400,0 L400,400 L0,400 L0,0 Z"/></defs><g id="devmdx_light_transparent" fill="none" fill-rule="nonzero" stroke="none" xlink:href="#path-1"><path id="3" fill="#CB6441" d="M50.4217613,289.566 L50.4217613,319.6365 C50.4217613,336.2355 63.9181229,349.707 80.547569,349.707 L110.673374,349.707 C110.673374,316.479 83.710778,289.566 50.4217613,289.566"/><path id="2" fill="#3D3826" d="M50,168.2837 L50,228.4247 C116.45753,228.4247 170.503229,289.859 170.503229,350 L230.754842,350 C230.754842,259.7885 149.836925,168.2837 50,168.2837"/><path id="1" fill="#CB6441" d="M349.812032,315.5693 C351.800336,333.5213 337.76171,350 319.686224,350 L291.428219,350 C291.428219,229.7177 170.503229,108.1427 50,108.1427 L50,79.9364 C50,61.8941 66.0871811,48.182 84.042161,50.1968 C223.404146,65.7431 334.236989,176.4929 349.812032,315.5693"/></g></svg>