<svg xmlns="http://www.w3.org/2000/svg" xmlns:xlink="http://www.w3.org/1999/xlink" width="400" height="400" version="1.1" viewBox="0 0 400 400"><title>devmdx_dark_macos</title><defs><path id="path-1" d="M0,0 L400,0 L400,400 L0,400 L0,0 Z"/><path id="path-2" d="M0,0 L300,0 L300,300 L0,300 L0,0 Z"/></defs><g id="devmdx_dark_macos" fill="none" stroke="none" xlink:href="#path-1"><path id="Regular---Large" fill="#262626" fill-rule="evenodd" d="M140.555408,37 L260.444592,37 C296.105342,37 309.036791,40.7130244 322.073828,47.6853082 C335.110865,54.6575919 345.342408,64.8891348 352.314692,77.9261719 C359.286976,90.9632089 363,103.894658 363,139.555408 L363,259.444592 C363,295.105342 359.286976,308.036791 352.314692,321.073828 C345.342408,334.110865 335.110865,344.342408 322.073828,351.314692 C309.036791,358.286976 296.105342,362 260.444592,362 L140.555408,362 C104.894658,362 91.9632089,358.286976 78.9261719,351.314692 C65.8891348,344.342408 55.6575919,334.110865 48.6853082,321.073828 C41.7130244,308.036791 38,295.105342 38,259.444592 L38,139.555408 C38,103.894658 41.7130244,90.9632089 48.6853082,77.9261719 C55.6575919,64.8891348 65.8891348,54.6575919 78.9261719,47.6853082 C91.9632089,40.7130244 104.894658,37 140.555408,37 Z"/><g id="-logo" fill-rule="nonzero" transform="translate(51, 50)" xlink:href="#path-2"><path id="3" fill="#D77757" d="M37.816321,217.1745 L37.816321,239.727375 C37.816321,252.176625 47.9385922,262.28025 60.4106767,262.28025 L83.0050305,262.28025 C83.0050305,237.35925 62.7830835,217.1745 37.816321,217.1745"/><path id="2" fill="#FAF9F1" d="M37.5,126.212775 L37.5,171.318525 C87.3431475,171.318525 127.877422,217.39425 127.877422,262.5 L173.066132,262.5 C173.066132,194.841375 112.377694,126.212775 37.5,126.212775"/><path id="1" fill="#D77757" d="M239.764668,262.5 L218.571164,262.5 C218.571164,172.288275 127.877422,81.107025 37.5,81.107025 L37.5,59.9523 C37.5,46.420575 49.5653858,36.1365 63.0316208,37.6476 C167.55311,49.307325 250.677742,132.369675 262.359024,236.676975 C263.850252,250.140975 253.321283,262.5 239.764668,262.5 Z"/></g></g></svg>