<?xml version="1.0" encoding="UTF-8"?>
<svg width="400px" height="400px" viewBox="0 0 400 400" version="1.1" xmlns="http://www.w3.org/2000/svg" xmlns:xlink="http://www.w3.org/1999/xlink">
    <title>dnsdeck_dark_macos</title>
    <defs>
        <path d="M0,0 L400,0 L400,400 L0,400 L0,0 Z" id="path-1"></path>
        <path d="M0,0 L300,0 L300,300 L0,300 L0,0 Z" id="path-2"></path>
    </defs>
    <g id="dnsdeck_dark_macos" stroke="none" fill="none" xlink:href="#path-1" fill-rule="evenodd">
        <path d="M140.555408,37 L260.444592,37 C296.105342,37 309.036791,40.7130244 322.073828,47.6853082 C335.110865,54.6575919 345.342408,64.8891348 352.314692,77.9261719 C359.286976,90.9632089 363,103.894658 363,139.555408 L363,259.444592 C363,295.105342 359.286976,308.036791 352.314692,321.073828 C345.342408,334.110865 335.110865,344.342408 322.073828,351.314692 C309.036791,358.286976 296.105342,362 260.444592,362 L140.555408,362 C104.894658,362 91.9632089,358.286976 78.9261719,351.314692 C65.8891348,344.342408 55.6575919,334.110865 48.6853082,321.073828 C41.7130244,308.036791 38,295.105342 38,259.444592 L38,139.555408 C38,103.894658 41.7130244,90.9632089 48.6853082,77.9261719 C55.6575919,64.8891348 65.8891348,54.6575919 78.9261719,47.6853082 C91.9632089,40.7130244 104.894658,37 140.555408,37 Z" id="Regular---Large" fill="#262626"></path>
        <g id="-logo" transform="translate(51, 50)" xlink:href="#path-2">
            <path d="M152,46.9987746 C185.4197,46.9987746 213.0038,71.0491914 220.0193,102.799325 C243.6884,103.085656 262.25,122.908191 262.25,146.636946 C262.25,170.539669 243.4157,190.477885 219.5,190.477885 L152,190.477885 C113.17247,190.477885 82.25,158.048916 82.25,118.73833 C82.25,79.4278334 113.17247,46.9987746 152,46.9987746 Z M130.351231,144.247898 C127.71538,146.874416 127.71538,151.132748 130.351231,153.759266 L137.10117,160.484789 C139.737021,163.11124 144.011082,163.11124 146.646933,160.484789 C149.282784,157.85827 149.282784,153.599939 146.646933,150.97342 L139.896994,144.247898 C137.261143,141.621447 132.987082,141.621447 130.351231,144.247898 Z" id="Path" fill="#D77757"></path>
            <path d="M163.970651,159.763611 C174.836703,148.894292 174.375007,134.620784 166.26158,125.87969 C162.304766,121.617524 156.673967,118.895033 150.29595,118.744919 C143.894308,118.594268 137.261818,121.033547 131.141649,126.135394 C130.98505,126.265869 130.834527,126.403339 130.690753,126.547399 L43.1525515,214.116996 C39.3723833,217.898084 37.25,223.018224 37.25,228.355599 L37.25,239.745271 C37.25,247.153434 43.2707429,253.248775 50.7757299,253.248775 L62.1076621,253.248775 C67.4922233,253.248775 72.655049,251.112076 76.4549271,247.310811 L163.970651,159.763611 Z M139.896994,144.247898 C137.261143,141.621447 132.987082,141.621447 130.351231,144.247898 C127.71538,146.874416 127.71538,151.132748 130.351231,153.759266 L137.10117,160.484789 C139.737021,163.11124 144.011082,163.11124 146.646933,160.484789 C149.282784,157.85827 149.282784,153.599939 146.646933,150.97342 L139.896994,144.247898 Z" id="Path" fill="#FAF9F1"></path>
        </g>
    </g>
</svg>