<svg xmlns="http://www.w3.org/2000/svg" xmlns:xlink="http://www.w3.org/1999/xlink" width="400" height="400" version="1.1" viewBox="0 0 400 400"><title>dnsdeck_light_opaque</title><defs><path id="path-1" d="M0,0 L400,0 L400,400 L0,400 L0,0 Z"/><path id="path-2" d="M0,0 L400,0 L400,400 L0,400 L0,0 Z"/></defs><g id="dnsdeck_light_opaque" fill="none" fill-rule="evenodd" stroke="none" xlink:href="#path-1"><use fill="#FAF9F1" xlink:href="#path-1"/><g id="logo" xlink:href="#path-2"><path id="Path-2" fill="#CB6441" d="M193.535532,62.6650328 C240.863021,62.6650328 279.926394,96.7763388 289.861432,141.808345 C323.380556,142.214455 349.666667,170.329252 349.666667,203.984336 C349.666667,237.886164 322.994371,266.165033 289.126022,266.165033 L193.535532,266.165033 C138.549715,266.165033 94.7586912,220.170217 94.7586912,164.415033 C94.7586912,108.659976 138.549715,62.6650328 193.535532,62.6650328 Z M173.805653,192.327907 C170.291095,195.830201 170.291095,201.508415 173.805653,205.01071 L182.805803,213.978766 C186.320362,217.480971 192.019257,217.480971 195.533815,213.978766 C199.048374,210.476471 199.048374,204.798257 195.533815,201.295962 L186.533665,192.327907 C183.019107,188.825701 177.320212,188.825701 173.805653,192.327907 Z"/><path id="Shape" fill="#3D3826" d="M218.627535,213.018148 C233.115604,198.525723 232.500009,179.494378 221.682107,167.839586 C216.406355,162.156699 208.898623,158.526711 200.3946,158.326559 C191.859078,158.12569 183.015758,161.378063 174.855532,168.180525 C174.646734,168.354492 174.446035,168.537785 174.254337,168.729866 L57.5367353,285.489327 C52.496511,290.530779 49.6666667,297.357632 49.6666667,304.474132 L49.6666667,319.660361 C49.6666667,329.537912 57.6943239,337.665033 67.7009732,337.665033 L82.8102162,337.665033 C89.9896311,337.665033 96.8733987,334.816102 101.939903,329.747748 L218.627535,213.018148 Z M186.533965,192.330531 C183.019496,188.828596 177.320748,188.828596 173.80628,192.330531 C170.291812,195.832555 170.291812,201.510331 173.80628,205.012355 L182.806198,213.979718 C186.320667,217.481653 192.019415,217.481653 195.533883,213.979718 C199.048351,210.477694 199.048351,204.799918 195.533883,201.297894 L186.533965,192.330531 Z"/></g></g></svg>