<svg xmlns="http://www.w3.org/2000/svg" xmlns:xlink="http://www.w3.org/1999/xlink" width="400" height="400" version="1.1" viewBox="0 0 400 400"><title>dnsdeck_tinted_transparent</title><defs><path id="path-1" d="M0,0 L400,0 L400,400 L0,400 L0,0 Z"/></defs><g id="dnsdeck_tinted_transparent" fill="none" fill-rule="evenodd" stroke="none" xlink:href="#path-1"><path id="Shape" fill="#FAF9F1" d="M202.666667,62.6650328 C247.226267,62.6650328 284.005067,94.7322553 293.359067,137.065767 C324.917867,137.447541 349.666667,163.877588 349.666667,195.515928 C349.666667,227.386225 324.554267,253.970513 292.666667,253.970513 L202.666667,253.970513 C194.989838,253.970513 187.544775,253.019736 180.431549,251.229252 L218.627535,213.018148 C233.115604,198.525723 232.500009,179.494378 221.682107,167.839586 C216.406355,162.156699 208.898623,158.526711 200.3946,158.326559 C191.859078,158.12569 183.015758,161.378063 174.855532,168.180525 C174.646734,168.354492 174.446035,168.537785 174.254337,168.729866 L127.857899,215.142053 C140.529501,232.781277 158.970179,245.827167 180.431549,251.229252 L101.939903,329.747748 C96.8733987,334.816102 89.9896311,337.665033 82.8102162,337.665033 L67.7009732,337.665033 C57.6943239,337.665033 49.6666667,329.537912 49.6666667,319.660361 L49.6666667,304.474132 C49.6666667,297.357632 52.496511,290.530779 57.5367353,285.489327 L127.857899,215.142053 C116.406544,199.201448 109.666667,179.509571 109.666667,158.317773 C109.666667,105.903778 150.896627,62.6650328 202.666667,62.6650328 Z M173.801641,192.330531 C177.316109,188.828596 183.014858,188.828596 186.529326,192.330531 L195.529244,201.297894 C199.043712,204.799918 199.043712,210.477694 195.529244,213.979718 C192.014776,217.481653 186.316028,217.481653 182.80156,213.979718 L173.801641,205.012355 C170.287173,201.510331 170.287173,195.832555 173.801641,192.330531 Z"/></g></svg>