<svg xmlns="http://www.w3.org/2000/svg" xmlns:xlink="http://www.w3.org/1999/xlink" width="400" height="400" version="1.1" viewBox="0 0 400 400"><title>illustrate_light_macos</title><defs><path id="path-1" d="M0,0 L400,0 L400,400 L0,400 L0,0 Z"/><path id="path-2" d="M0,0 L300,0 L300,300 L0,300 L0,0 Z"/></defs><g id="illustrate_light_macos" fill="none" stroke="none" xlink:href="#path-1"><path id="Regular---Large" fill="#FAF9F1" fill-rule="evenodd" d="M140.555408,37 L260.444592,37 C296.105342,37 309.036791,40.7130244 322.073828,47.6853082 C335.110865,54.6575919 345.342408,64.8891348 352.314692,77.9261719 C359.286976,90.9632089 363,103.894658 363,139.555408 L363,259.444592 C363,295.105342 359.286976,308.036791 352.314692,321.073828 C345.342408,334.110865 335.110865,344.342408 322.073828,351.314692 C309.036791,358.286976 296.105342,362 260.444592,362 L140.555408,362 C104.894658,362 91.9632089,358.286976 78.9261719,351.314692 C65.8891348,344.342408 55.6575919,334.110865 48.6853082,321.073828 C41.7130244,308.036791 38,295.105342 38,259.444592 L38,139.555408 C38,103.894658 41.7130244,90.9632089 48.6853082,77.9261719 C55.6575919,64.8891348 65.8891348,54.6575919 78.9261719,47.6853082 C91.9632089,40.7130244 104.894658,37 140.555408,37 Z"/><g id="-logo" transform="translate(51, 50)" xlink:href="#path-2"><path id="Shape" fill="#3D3826" fill-rule="evenodd" d="M135.734066,138.777555 L142.28967,139.693147 C162.809294,142.714598 179.360822,159.59545 182.870248,181.056882 L184.033059,188.422959 L182.10494,190.148641 C180.819527,191.294073 179.534115,192.424432 178.248702,193.509578 L160.992038,208.057309 C160.992038,207.752112 160.895632,207.345182 160.895632,206.938252 C159.545949,196.052887 154.725652,185.981381 146.917156,177.741058 C139.011868,169.399003 129.178462,164.312384 118.380996,162.88813 C118.091778,162.88813 117.706155,162.786398 117.416937,162.786398 L131.395799,144.169372 C132.745482,142.338189 134.191571,140.608738 135.734066,138.777555 Z M258.36879,59.3982176 C262.032216,63.2640482 263.767523,69.0627941 261.45378,74.9632724 C248.824601,108.229762 219.999224,151.669083 192.52353,180.052418 C188.570886,153.805463 168.711262,133.255928 143.646102,129.593563 C170.639381,100.498101 212.093937,69.6731884 243.715086,56.2445137 C249.306631,54.0064013 254.898176,55.7358518 258.36879,59.3982176 Z"/><path id="Path" fill="#CB6441" fill-rule="evenodd" d="M151.743816,214.160234 C151.743816,225.350797 147.694766,236.032697 139.981905,244.069555 C134.101142,250.376963 126.195951,254.649723 116.555357,255.870512 L92.9358041,258.617286 C80.0174076,260.143272 68.930724,248.444048 70.3768132,234.710176 L72.9797737,209.68401 C75.2935163,187.404617 92.9358041,173.162084 111.638557,172.755154 C113.47027,172.653422 115.494795,172.755154 117.422914,172.958619 C125.617419,174.077675 133.522707,178.045238 140.174717,184.96304 C146.633915,191.77911 150.297727,199.815968 151.358192,208.259756 C151.551004,210.294404 151.743816,212.227319 151.743816,214.160234 Z"/><path id="Combined-Shape" fill="#85827D" fill-rule="nonzero" d="M79.1568094,66.289823 C81.2297396,66.289823 83.0883016,67.5379789 83.8310676,69.4289181 L91.8097501,89.701247 C92.1365118,90.5272803 92.8048078,91.1802619 93.6502142,91.4995357 L114.277832,99.2542885 C116.293462,99.9842901 117.625079,101.869832 117.608448,103.970149 C117.577026,105.959367 116.307307,107.728806 114.404001,108.43554 L93.6562222,116.231386 C92.8108159,116.550659 92.1425199,117.203641 91.8157581,118.029674 L83.8310676,138.307874 C83.0931202,140.201391 81.2304565,141.44902 79.1568094,141.438798 C77.0831623,141.44902 75.2204986,140.201391 74.4825512,138.307874 L66.5038688,118.035545 C66.177107,117.209511 65.508811,116.55653 64.6634046,116.237256 L43.909618,108.43554 C41.9743303,107.709795 40.6969014,105.893823 40.6969014,103.868396 C40.6969014,101.842968 41.9743303,100.026997 43.909618,99.3012515 L64.6573966,91.505406 C65.5028029,91.1861322 66.1710989,90.5331507 66.4978607,89.7071174 L74.4825512,69.4289181 C75.2253172,67.5379789 77.0838792,66.289823 79.1568094,66.289823 Z M120.598294,49.5205518 L125.172418,61.1380052 C125.335143,61.5520008 125.669947,61.8791317 126.093652,62.0381279 L137.983571,66.5074328 C139.220079,66.9729664 140.035752,68.1341585 140.035752,69.4289181 C140.035752,70.7236776 139.220079,71.8848698 137.983571,72.3504033 L126.093652,76.8197083 C125.669947,76.9787044 125.335143,77.3058353 125.172418,77.719831 L120.598294,89.3372844 C120.122674,90.5464448 118.934062,91.3449494 117.608291,91.3449494 C116.28252,91.3449494 115.093908,90.5464448 114.618288,89.3372844 L110.044164,77.719831 C109.881438,77.3058353 109.546635,76.9787044 109.12293,76.8197083 L97.2330111,72.3504033 C95.9965032,71.8848698 95.1808303,70.7236776 95.1808303,69.4289181 C95.1808303,68.1341585 95.9965032,66.9729664 97.2330111,66.5074328 L109.12293,62.0381279 C109.546635,61.8791317 109.881438,61.5520008 110.044164,61.1380052 L114.584242,49.6027369 C115.006524,48.4913291 116.019863,47.6966784 117.221773,47.5344114 C118.680174,47.3619166 120.07182,48.1805119 120.598294,49.5205518 Z M57.8663042,43.0905447 L61.2428249,51.6691056 C61.3914992,52.0481631 61.6980061,52.3476462 62.0859537,52.4929135 L70.8657087,55.7920589 C71.9997201,56.2187486 72.7478511,57.2835596 72.7478511,58.4709024 C72.7478511,59.6582452 71.9997201,60.7230562 70.8657087,61.1497459 L62.0859537,64.4488913 C61.6975812,64.5935183 61.3908438,64.8932265 61.2428249,65.2726993 L57.8663042,73.8512601 C57.4297296,74.9594301 56.339918,75.6906413 55.1246334,75.6906413 C53.9093489,75.6906413 52.8195373,74.9594301 52.3829627,73.8512601 L49.006442,65.2726993 C48.8584231,64.8932265 48.5516857,64.5935183 48.1633131,64.4488913 L39.3835582,61.1497459 C38.2495468,60.7230562 37.5014158,59.6582452 37.5014158,58.4709024 C37.5014158,57.2835596 38.2495468,56.2187486 39.3835582,55.7920589 L48.1633131,52.4929135 C48.5512608,52.3476462 48.8577677,52.0481631 49.006442,51.6691056 L52.3529225,43.1668595 C52.7375201,42.1468252 53.6675972,41.4180073 54.7701588,41.2726882 C56.1065789,41.1139473 57.382423,41.8630405 57.8663042,43.0905447 Z"/></g></g></svg>