<?xml version="1.0" encoding="UTF-8"?>
<svg width="400px" height="400px" viewBox="0 0 400 400" version="1.1" xmlns="http://www.w3.org/2000/svg" xmlns:xlink="http://www.w3.org/1999/xlink">
    <title>illustrate_dark_transparent</title>
    <defs>
        <path d="M0,0 L400,0 L400,400 L0,400 L0,0 Z" id="path-1"></path>
    </defs>
    <g id="illustrate_dark_transparent" stroke="none" fill="none" xlink:href="#path-1">
        <path d="M180.978755,185.03674 L189.71956,186.257529 C217.079058,190.286131 239.147762,212.793933 243.826998,241.409176 L245.377411,251.230611 L242.806586,253.531522 C241.092703,255.058763 239.378819,256.56591 237.664936,258.01277 L214.656051,277.409745 C214.656051,277.002815 214.527509,276.460243 214.527509,275.91767 C212.727932,261.40385 206.300869,247.975175 195.889541,236.988078 C185.349158,225.865337 172.237949,219.083178 157.841328,217.184174 C157.455704,217.184174 156.941539,217.04853 156.555916,217.04853 L175.194398,192.225829 C176.993976,189.784252 178.922095,187.478318 180.978755,185.03674 Z M344.49172,79.1976235 C349.376288,84.3520643 351.69003,92.0837255 348.60504,99.9510298 C331.766135,144.306349 293.332299,202.225444 256.69804,240.069891 C251.427848,205.073951 224.948349,177.674571 191.528136,172.791417 C227.519174,133.997468 282.791916,92.8975845 324.953449,74.992685 C332.408842,72.008535 339.864235,74.3144691 344.49172,79.1976235 Z" id="Shape" fill="#FAF9F1" fill-rule="evenodd"></path>
        <path d="M202.325088,285.546979 C202.325088,300.467729 196.926355,314.710263 186.64254,325.426074 C178.801523,333.835951 168.261268,339.532964 155.407142,341.160682 L123.914405,344.823048 C106.689877,346.857696 91.907632,331.25873 93.8357509,312.946901 L97.3063649,279.578679 C100.391355,249.872823 123.914405,230.882778 148.85141,230.340206 C151.293694,230.204562 153.99306,230.340206 156.563885,230.611492 C167.489892,232.103567 178.030275,237.393651 186.899622,246.617387 C195.511887,255.70548 200.396969,266.421291 201.810923,277.679675 C202.068005,280.392538 202.325088,282.969759 202.325088,285.546979 Z" id="Path" fill="#CB6441" fill-rule="evenodd"></path>
        <path d="M105.542413,88.3864307 C108.30632,88.3864307 110.784402,90.0506385 111.774757,92.5718908 L122.413,119.601663 C122.848682,120.70304 123.739744,121.573682 124.866952,121.999381 L152.370443,132.339051 C155.057949,133.312387 156.833439,135.826443 156.811264,138.626865 C156.769368,141.279156 155.076409,143.638407 152.538668,144.58072 L124.874963,154.975181 C123.747755,155.400879 122.856693,156.271521 122.421011,157.372899 L111.774757,184.410498 C110.790827,186.935188 108.307275,188.598693 105.542413,188.585064 C102.77755,188.598693 100.293998,186.935188 99.3100682,184.410498 L88.671825,157.380726 C88.2361426,156.279349 87.3450813,155.408706 86.2178728,154.983008 L58.5461573,144.58072 C55.9657738,143.61306 54.2625351,141.191765 54.2625351,138.491194 C54.2625351,135.790624 55.9657738,133.369329 58.5461573,132.401669 L86.2098621,122.007208 C87.3370706,121.58151 88.2281319,120.710868 88.6638143,119.60949 L99.3100682,92.5718908 C100.300423,90.0506385 102.778506,88.3864307 105.542413,88.3864307 Z M160.797726,66.0274024 L166.896558,81.5173402 C167.113525,82.0693344 167.559929,82.5055089 168.124869,82.7175038 L183.978094,88.6765771 C185.626772,89.2972885 186.714335,90.8455447 186.714335,92.5718908 C186.714335,94.2982368 185.626772,95.846493 183.978094,96.4672044 L168.124869,102.426278 C167.559929,102.638273 167.113525,103.074447 166.896558,103.626441 L160.797726,119.116379 C160.163565,120.728593 158.578749,121.793266 156.811055,121.793266 C155.04336,121.793266 153.458544,120.728593 152.824384,119.116379 L146.725551,103.626441 C146.508585,103.074447 146.06218,102.638273 145.49724,102.426278 L129.644015,96.4672044 C127.995338,95.846493 126.907774,94.2982368 126.907774,92.5718908 C126.907774,90.8455447 127.995338,89.2972885 129.644015,88.6765771 L145.49724,82.7175038 C146.06218,82.5055089 146.508585,82.0693344 146.725551,81.5173402 L152.77899,66.1369825 C153.342032,64.6551054 154.693151,63.5955712 156.295698,63.3792152 C158.240232,63.1492221 160.09576,64.2406825 160.797726,66.0274024 Z M77.1550722,57.4540596 L81.6570999,68.8921407 C81.8553322,69.3975508 82.2640081,69.7968616 82.7812717,69.9905514 L94.4876116,74.3894119 C95.9996268,74.9583315 96.9971348,76.3780795 96.9971348,77.9612032 C96.9971348,79.5443269 95.9996268,80.9640749 94.4876116,81.5329945 L82.7812717,85.9318551 C82.2634416,86.124691 81.8544584,86.524302 81.6570999,87.0302657 L77.1550722,98.4683468 C76.5729728,99.9459068 75.1198906,100.920855 73.4995113,100.920855 C71.8791319,100.920855 70.4260497,99.9459068 69.8439503,98.4683468 L65.3419226,87.0302657 C65.1445641,86.524302 64.7355809,86.124691 64.2177509,85.9318551 L52.5114109,81.5329945 C50.9993958,80.9640749 50.0018877,79.5443269 50.0018877,77.9612032 C50.0018877,76.3780795 50.9993958,74.9583315 52.5114109,74.3894119 L64.2177509,69.9905514 C64.7350144,69.7968616 65.1436903,69.3975508 65.3419226,68.8921407 L69.8038966,57.5558126 C70.3166935,56.195767 71.5567962,55.2240097 73.0268785,55.0302509 C74.8087719,54.8185964 76.5098973,55.8173874 77.1550722,57.4540596 Z" id="Combined-Shape" fill="#85827D" fill-rule="nonzero"></path>
    </g>
</svg>