<?xml version="1.0" encoding="UTF-8"?>
<svg width="400px" height="400px" viewBox="0 0 400 400" version="1.1" xmlns="http://www.w3.org/2000/svg" xmlns:xlink="http://www.w3.org/1999/xlink">
    <title>openproxy_dark_macos</title>
    <defs>
        <path d="M0,0 L400,0 L400,400 L0,400 L0,0 Z" id="path-1"></path>
        <path d="M0,0 L300,0 L300,300 L0,300 L0,0 Z" id="path-2"></path>
    </defs>
    <g id="openproxy_dark_macos" stroke="none" fill="none" xlink:href="#path-1">
        <path d="M140.555408,37 L260.444592,37 C296.105342,37 309.036791,40.7130244 322.073828,47.6853082 C335.110865,54.6575919 345.342408,64.8891348 352.314692,77.9261719 C359.286976,90.9632089 363,103.894658 363,139.555408 L363,259.444592 C363,295.105342 359.286976,308.036791 352.314692,321.073828 C345.342408,334.110865 335.110865,344.342408 322.073828,351.314692 C309.036791,358.286976 296.105342,362 260.444592,362 L140.555408,362 C104.894658,362 91.9632089,358.286976 78.9261719,351.314692 C65.8891348,344.342408 55.6575919,334.110865 48.6853082,321.073828 C41.7130244,308.036791 38,295.105342 38,259.444592 L38,139.555408 C38,103.894658 41.7130244,90.9632089 48.6853082,77.9261719 C55.6575919,64.8891348 65.8891348,54.6575919 78.9261719,47.6853082 C91.9632089,40.7130244 104.894658,37 140.555408,37 Z" id="Regular---Large" fill="#262626" fill-rule="evenodd"></path>
        <g id="-logo" transform="translate(50, 50)" xlink:href="#path-2" fill-rule="nonzero">
            <path d="M134.249273,40.6551071 C159.971998,32.5878326 187.49724,45.3726128 198.835601,70.6538269 L236.380577,70.6538269 L221.86977,55.5375293 C218.831123,52.3720886 218.835955,47.3715391 221.880715,44.2119773 C221.945519,44.1447295 222.011563,44.0786864 222.07881,44.0138819 C225.089838,41.1122592 229.882988,41.2009496 232.784611,44.2119773 L259.980741,72.4335314 C263.339931,75.9193787 263.339931,81.4379562 259.980741,84.9238036 L232.784611,113.145358 L232.586516,113.343453 C229.575488,116.245076 224.782338,116.156385 221.880715,113.145358 C218.835955,109.985796 218.831123,104.985246 221.86977,101.819806 L236.380577,86.703508 L203.514223,86.703508 C207.567482,114.269508 191.473585,140.734315 165.75086,148.80159 C163.137868,149.621088 160.506276,150.225411 157.874941,150.623319 L157.875,183.375 L141.375,183.375 L141.374495,150.463188 C124.23728,147.53263 108.917123,136.088869 101.164532,118.80287 L63.6195564,118.80287 L78.1303631,133.919168 C81.1690105,137.084609 81.164178,142.085158 78.1194183,145.24472 L77.9213229,145.442815 C74.9102951,148.344438 70.1171449,148.255748 67.2155222,145.24472 L40.0193924,117.023166 C36.6602025,113.537318 36.6602025,108.018741 40.0193924,104.532894 L67.2155222,76.3113395 L67.4136176,76.1132441 C70.4246453,73.2116214 75.2177956,73.3003117 78.1194183,76.3113395 C81.164178,79.4709013 81.1690105,84.4714508 78.1303631,87.6368915 L63.6195564,102.753189 L96.4859099,102.753189 C92.4326516,75.1871888 108.526549,48.7223817 134.249273,40.6551071 Z" id="Path" fill="#D77757"></path>
            <path d="M227.332663,183.001595 C235.874586,183.001595 242.799182,190.187282 242.799182,199.051276 L242.799182,247.200319 C242.799182,256.064313 235.874586,263.25 227.332663,263.25 L72.6674702,263.25 C64.1255475,263.25 57.2009509,256.064313 57.2009509,247.200319 L57.2009509,199.051276 C57.2009509,190.187282 64.1255475,183.001595 72.6674702,183.001595 Z M95.8672491,215.100957 C91.5962878,215.100957 88.1339895,218.6938 88.1339895,223.125797 C88.1339895,227.557794 91.5962878,231.150638 95.8672491,231.150638 C100.138211,231.150638 103.600509,227.557794 103.600509,223.125797 C103.600509,218.6938 100.138211,215.100957 95.8672491,215.100957 Z" id="Shape" fill="#FAF9F1"></path>
        </g>
    </g>
</svg>