<?xml version="1.0" encoding="UTF-8"?>
<svg width="400px" height="400px" viewBox="0 0 400 400" version="1.1" xmlns="http://www.w3.org/2000/svg" xmlns:xlink="http://www.w3.org/1999/xlink">
    <title>openproxy_light_opaque</title>
    <defs>
        <path d="M0,0 L400,0 L400,400 L0,400 L0,0 Z" id="path-1"></path>
        <path d="M0,0 L400,0 L400,400 L0,400 L0,0 Z" id="path-2"></path>
    </defs>
    <g id="openproxy_light_opaque" stroke="none" fill="none" xlink:href="#path-1">
        <use fill="#FAF9F1" fill-rule="evenodd" xlink:href="#path-1"></use>
        <g id="logo" xlink:href="#path-2" fill-rule="nonzero">
            <path d="M178.999031,54.2068095 C213.295998,43.4504434 249.99632,60.4968171 265.114135,94.2051025 L315.174102,94.2051025 L295.82636,74.050039 C291.77483,69.8294515 291.781274,63.1620521 295.840953,58.9493031 C295.927359,58.8596393 296.015417,58.7715818 296.105081,58.6851759 C300.119784,54.8163456 306.510651,54.9345994 310.379481,58.9493031 L346.640988,96.5780418 C351.119908,101.225838 351.119908,108.583942 346.640988,113.231738 L310.379481,150.860477 L310.115354,151.124604 C306.100651,154.993434 299.709784,154.87518 295.840953,150.860477 C291.781274,146.647728 291.77483,139.980328 295.82636,135.759741 L315.174102,115.604677 L271.352298,115.604677 C276.756642,152.359344 255.298113,187.645754 221.001147,198.40212 C217.517157,199.494784 214.008368,200.300549 210.499921,200.831092 L210.5,244.5 L188.5,244.5 L188.499326,200.617584 C165.649706,196.710174 145.22283,181.451825 134.886043,158.403827 L84.8260752,158.403827 L104.173817,178.55889 C108.225347,182.779478 108.218904,189.446877 104.159224,193.659626 L103.895097,193.923754 C99.8803935,197.792584 93.4895265,197.67433 89.6206962,193.659626 L53.3591898,156.030888 C48.8802701,151.383091 48.8802701,144.024988 53.3591898,139.377191 L89.6206962,101.748453 L89.8848234,101.484325 C93.8995271,97.6154952 100.290394,97.733749 104.159224,101.748453 C108.218904,105.961202 108.225347,112.628601 104.173817,116.849189 L84.8260752,137.004252 L128.64788,137.004252 C123.243535,100.249585 144.702065,64.9631756 178.999031,54.2068095 Z" id="Path" fill="#CB6441"></path>
            <path d="M303.110217,244.002126 C314.499448,244.002126 323.732243,253.583042 323.732243,265.401701 L323.732243,329.600425 C323.732243,341.419084 314.499448,351 303.110217,351 L96.8899603,351 C85.50073,351 76.2679346,341.419084 76.2679346,329.600425 L76.2679346,265.401701 C76.2679346,253.583042 85.50073,244.002126 96.8899603,244.002126 Z M127.822999,286.801276 C122.128384,286.801276 117.511986,291.591734 117.511986,297.501063 C117.511986,303.410392 122.128384,308.20085 127.822999,308.20085 C133.517614,308.20085 138.134012,303.410392 138.134012,297.501063 C138.134012,291.591734 133.517614,286.801276 127.822999,286.801276 Z" id="Shape" fill="#3D3826"></path>
        </g>
    </g>
</svg>