<?xml version="1.0" encoding="UTF-8"?>
<svg width="400px" height="400px" viewBox="0 0 400 400" version="1.1" xmlns="http://www.w3.org/2000/svg" xmlns:xlink="http://www.w3.org/1999/xlink">
    <title>passportui_tinted_opaque</title>
    <defs>
        <path d="M0,0 L400,0 L400,400 L0,400 L0,0 Z" id="path-1"></path>
        <path d="M0,0 L400,0 L400,400 L0,400 L0,0 Z" id="path-2"></path>
    </defs>
    <g id="passportui_tinted_opaque" stroke="none" fill="none" xlink:href="#path-1">
        <use fill="#262626" fill-rule="evenodd" xlink:href="#path-1"></use>
        <g id="logo" xlink:href="#path-2" fill="#FAF9F1" fill-rule="nonzero">
            <path d="M200,345 L245.36,345 L247.906629,344.993993 C265.617336,344.909252 280.898545,343.91428 293.762,341.15025 C307.4105,338.21835 319.241,333.1071 328.469,324.1867 C337.697,315.2663 342.9845,303.83015 346.0175,290.6366 C349.013,277.6098 350,262.01795 350,243.848 L350,200 C350,183.9833 336.569,171 320,171 L200,171 C183.431,171 170,183.9833 170,200 L170,316 C170,332.0167 183.431,345 200,345 Z M50,200.080608 L50,244.050487 C50,262.270941 50.9754074,277.90613 53.9336296,290.969139 C56.9291852,304.199362 62.1512593,315.667299 71.2656296,324.612494 C80.38,333.557689 92.0641481,338.683146 105.542963,341.623196 C106.833778,341.903824 108.131111,342.168457 109.433778,342.415642 C125.500593,345.461836 138.888889,332.115291 138.888889,316.054071 L138.888889,200.080608 C138.888889,184.019388 125.623259,171 109.259259,171 L79.6296296,171 C63.2656296,171 50,184.019388 50,200.080608 Z M247.5182,55.0014725 L155.874941,55 C137.15045,55 121.083873,55.9428938 107.658775,58.8025086 C94.0640828,61.6982123 82.2794861,66.7462173 73.0867595,75.5567753 C63.8940329,84.3673333 58.6270647,95.6620099 55.6057564,108.691531 C55.3577162,109.761452 55.1243194,110.83481 54.9051177,111.911319 C51.7018136,127.645644 65.6679683,140.925926 82.394242,140.925926 L320.239344,140.925926 C336.744473,140.925926 350.459898,127.983906 347.329512,112.452652 C347.075495,111.193407 346.803547,109.939319 346.515163,108.691531 C343.492361,95.6620099 338.226737,84.3673333 329.032815,75.5567753 C319.840388,66.7462173 308.055492,61.6982123 294.461099,58.8025086 C281.340678,56.0078851 265.698624,55.0438489 247.5182,55.0014725 Z" id="Shape"></path>
        </g>
    </g>
</svg>