<?xml version="1.0" encoding="UTF-8"?>
<svg width="400px" height="400px" viewBox="0 0 400 400" version="1.1" xmlns="http://www.w3.org/2000/svg" xmlns:xlink="http://www.w3.org/1999/xlink">
    <title>passportui_dark_macos</title>
    <defs>
        <path d="M0,0 L400,0 L400,400 L0,400 L0,0 Z" id="path-1"></path>
        <path d="M0,0 L300,0 L300,300 L0,300 L0,0 Z" id="path-2"></path>
    </defs>
    <g id="passportui_dark_macos" stroke="none" fill="none" xlink:href="#path-1">
        <path d="M140.555408,37 L260.444592,37 C296.105342,37 309.036791,40.7130244 322.073828,47.6853082 C335.110865,54.6575919 345.342408,64.8891348 352.314692,77.9261719 C359.286976,90.9632089 363,103.894658 363,139.555408 L363,259.444592 C363,295.105342 359.286976,308.036791 352.314692,321.073828 C345.342408,334.110865 335.110865,344.342408 322.073828,351.314692 C309.036791,358.286976 296.105342,362 260.444592,362 L140.555408,362 C104.894658,362 91.9632089,358.286976 78.9261719,351.314692 C65.8891348,344.342408 55.6575919,334.110865 48.6853082,321.073828 C41.7130244,308.036791 38,295.105342 38,259.444592 L38,139.555408 C38,103.894658 41.7130244,90.9632089 48.6853082,77.9261719 C55.6575919,64.8891348 65.8891348,54.6575919 78.9261719,47.6853082 C91.9632089,40.7130244 104.894658,37 140.555408,37 Z" id="Regular---Large" fill="#262626" fill-rule="evenodd"></path>
        <g id="-logo" transform="translate(51, 50)" xlink:href="#path-2" fill-rule="nonzero">
            <path d="M150,258.75 L184.02,258.75 L185.929972,258.745495 C199.213002,258.681939 210.673909,257.93571 220.3215,255.862687 C230.557875,253.663763 239.43075,249.830325 246.35175,243.140025 C253.27275,236.449725 257.238375,227.872613 259.513125,217.97745 C261.75975,208.20735 262.5,196.513463 262.5,182.886 L262.5,150 C262.5,137.987475 252.42675,128.25 240,128.25 L150,128.25 C137.57325,128.25 127.5,137.987475 127.5,150 L127.5,237 C127.5,249.012525 137.57325,258.75 150,258.75 Z" id="Path" fill="#FAF9F1"></path>
            <path d="M37.5,150.060456 L37.5,183.037865 C37.5,196.703206 38.2315556,208.429598 40.4502222,218.226854 C42.6968889,228.149521 46.6134444,236.750474 53.4492222,243.459371 C60.285,250.168267 69.0481111,254.01236 79.1572222,256.217397 C80.1253333,256.427868 81.0983333,256.626343 82.0753333,256.811732 C94.1254444,259.096377 104.166667,249.086468 104.166667,237.040554 L104.166667,150.060456 C104.166667,138.014541 94.2174444,128.25 81.9444444,128.25 L59.7222222,128.25 C47.4492222,128.25 37.5,138.014541 37.5,150.060456 Z" id="Path" fill="#FAF9F1"></path>
            <path d="M185.63865,41.2511044 L116.906206,41.25 C102.862837,41.25 90.8129049,41.9571704 80.7440812,44.1018815 C70.5480621,46.2736593 61.7096145,50.059663 54.8150696,56.6675815 C47.9205247,63.2755 43.9702985,71.7465074 41.7043173,81.5186481 C41.5182872,82.3210889 41.3432396,83.1261074 41.1788383,83.9334889 C38.7763602,95.7342333 49.2509762,105.694444 61.7956815,105.694444 L240.179508,105.694444 C252.558355,105.694444 262.844924,95.9879296 260.497134,84.3394889 C260.306621,83.3950556 260.102661,82.4544889 259.886373,81.5186481 C257.619271,71.7465074 253.670053,63.2755 246.774612,56.6675815 C239.880291,50.059663 231.041619,46.2736593 220.845824,44.1018815 C211.005509,42.0059138 199.273968,41.2828866 185.63865,41.2511044 L185.63865,41.2511044 Z" id="Path" fill="#D77757"></path>
        </g>
    </g>
</svg>