<?xml version="1.0" encoding="UTF-8"?>
<svg width="400px" height="400px" viewBox="0 0 400 400" version="1.1" xmlns="http://www.w3.org/2000/svg" xmlns:xlink="http://www.w3.org/1999/xlink">
    <title>prepity_light_transparent</title>
    <defs>
        <path d="M0,0 L400,0 L400,400 L0,400 L0,0 Z" id="path-1"></path>
    </defs>
    <g id="prepity_light_transparent" stroke="none" fill="none" xlink:href="#path-1" fill-rule="evenodd">
        <path d="M238.017048,50.000941 C259.175699,50.0116731 274.312958,50.1417754 285.935,51.67265 C298.0805,53.2724 304.511,56.1986 309.092,60.6866 C313.673,65.17475 316.6595,71.4758 318.293,83.37485 C319.875609,94.913763 319.991314,109.989217 319.999411,131.157411 L319.999978,134.127579 L320,135.1352 L320,252.7025 L127.076794,252.702473 C115.204691,252.710346 106.786024,252.858176 99.48485,254.7755 C92.4011,256.634 85.83005,259.6715 80,263.663 L80.0005833,131.157411 C80.008621,109.989217 80.1238435,94.9137717 81.7073,83.375 C83.3402,71.4758 86.32685,65.17475 90.9077,60.6866 C95.4887,56.1986 101.92025,53.2724 114.06545,51.67265 C125.687353,50.1417754 140.824343,50.0116731 161.982956,50.000941 Z M187.542413,123.386431 C184.778506,123.386431 182.300423,125.050638 181.310068,127.571891 L170.663814,154.60949 C170.228132,155.710868 169.337071,156.58151 168.209862,157.007208 L140.546157,167.401669 C137.965774,168.369329 136.262535,170.790624 136.262535,173.491194 C136.262535,176.191765 137.965774,178.61306 140.546157,179.58072 L168.217873,189.983008 C169.345081,190.408706 170.236143,191.279349 170.671825,192.380726 L181.310068,219.410498 C182.293998,221.935188 184.77755,223.598693 187.542413,223.585064 C190.307275,223.598693 192.790827,221.935188 193.774757,219.410498 L204.421011,192.372899 C204.856693,191.271521 205.747755,190.400879 206.874963,189.975181 L234.538668,179.58072 C237.076409,178.638407 238.769368,176.279156 238.811264,173.626865 C238.833439,170.826443 237.057949,168.312387 234.370443,167.339051 L206.866952,156.999381 C205.739744,156.573682 204.848682,155.70304 204.413,154.601663 L193.774757,127.571891 C192.784402,125.050638 190.30632,123.386431 187.542413,123.386431 Z M242.797726,101.027402 C242.09576,99.2406825 240.240232,98.1492221 238.295698,98.3792152 C236.693151,98.5955712 235.342032,99.6551054 234.77899,101.136983 L228.725551,116.51734 C228.508585,117.069334 228.06218,117.505509 227.49724,117.717504 L211.644015,123.676577 C209.995338,124.297289 208.907774,125.845545 208.907774,127.571891 C208.907774,129.298237 209.995338,130.846493 211.644015,131.467204 L227.49724,137.426278 C228.06218,137.638273 228.508585,138.074447 228.725551,138.626441 L234.824384,154.116379 C235.458544,155.728593 237.04336,156.793266 238.811055,156.793266 C240.578749,156.793266 242.163565,155.728593 242.797726,154.116379 L248.896558,138.626441 C249.113525,138.074447 249.559929,137.638273 250.124869,137.426278 L265.978094,131.467204 C267.626772,130.846493 268.714335,129.298237 268.714335,127.571891 C268.714335,125.845545 267.626772,124.297289 265.978094,123.676577 L250.124869,117.717504 C249.559929,117.505509 249.113525,117.069334 248.896558,116.51734 Z M159.155072,92.4540596 C158.509897,90.8173874 156.808772,89.8185964 155.026878,90.0302509 C153.556796,90.2240097 152.316694,91.195767 151.803897,92.5558126 L147.341923,103.892141 C147.14369,104.397551 146.735014,104.796862 146.217751,104.990551 L134.511411,109.389412 C132.999396,109.958332 132.001888,111.37808 132.001888,112.961203 C132.001888,114.544327 132.999396,115.964075 134.511411,116.532995 L146.217751,120.931855 C146.735581,121.124691 147.144564,121.524302 147.341923,122.030266 L151.84395,133.468347 C152.42605,134.945907 153.879132,135.920855 155.499511,135.920855 C157.119891,135.920855 158.572973,134.945907 159.155072,133.468347 L163.6571,122.030266 C163.854458,121.524302 164.263442,121.124691 164.781272,120.931855 L176.487612,116.532995 C177.999627,115.964075 178.997135,114.544327 178.997135,112.961203 C178.997135,111.37808 177.999627,109.958332 176.487612,109.389412 L164.781272,104.990551 C164.264008,104.796862 163.855332,104.397551 163.6571,103.892141 Z" id="Combined-Shape" fill="#CB6441"></path>
        <path d="M150.34475,277.0265 L132.10115,277.0265 C115.90925,277.0265 110.24855,277.1315 105.9107,278.27 C94.00475,281.396 84.5132,290.066 80.4428,301.337 C80.6945,307.073 81.08885,312.119 81.7073,316.625 C83.3402,328.5245 86.32685,334.826 90.9077,339.314 C95.4887,343.802 101.92025,346.727 114.06545,348.3275 C126.5678,349.9745 143.138,350 166.8965,350 L233.1035,350 C256.862,350 273.4325,349.9745 285.935,348.3275 C298.0805,346.727 304.511,343.802 309.092,339.314 C313.673,334.826 316.6595,328.5245 318.293,316.625 C319.664,306.632 319.934,293.9855 319.9865,277.0265 L216.551,277.0265 L216.551,322.1255 C216.551,326.5955 216.551,328.829 214.982,329.732 C213.4115,330.635 211.265,329.636 206.9705,327.638 L186.4085,318.0695 C184.9565,317.393 184.229,317.0555 183.449,317.0555 C182.6675,317.0555 181.94,317.393 180.488,318.0695 L159.9263,327.638 C155.63195,329.636 153.48485,330.635 151.9148,329.732 C150.34475,328.829 150.34475,326.5955 150.34475,322.1255 L150.34475,277.0265 Z" id="Path" fill="#3D3826"></path>
    </g>
</svg>