<?xml version="1.0" encoding="UTF-8"?>
<svg width="400px" height="400px" viewBox="0 0 400 400" version="1.1" xmlns="http://www.w3.org/2000/svg" xmlns:xlink="http://www.w3.org/1999/xlink">
    <title>prepity_light_macos</title>
    <defs>
        <path d="M0,0 L400,0 L400,400 L0,400 L0,0 Z" id="path-1"></path>
        <path d="M0,0 L300,0 L300,300 L0,300 L0,0 Z" id="path-2"></path>
    </defs>
    <g id="prepity_light_macos" stroke="none" fill="none" xlink:href="#path-1" fill-rule="evenodd">
        <path d="M140.555408,37 L260.444592,37 C296.105342,37 309.036791,40.7130244 322.073828,47.6853082 C335.110865,54.6575919 345.342408,64.8891348 352.314692,77.9261719 C359.286976,90.9632089 363,103.894658 363,139.555408 L363,259.444592 C363,295.105342 359.286976,308.036791 352.314692,321.073828 C345.342408,334.110865 335.110865,344.342408 322.073828,351.314692 C309.036791,358.286976 296.105342,362 260.444592,362 L140.555408,362 C104.894658,362 91.9632089,358.286976 78.9261719,351.314692 C65.8891348,344.342408 55.6575919,334.110865 48.6853082,321.073828 C41.7130244,308.036791 38,295.105342 38,259.444592 L38,139.555408 C38,103.894658 41.7130244,90.9632089 48.6853082,77.9261719 C55.6575919,64.8891348 65.8891348,54.6575919 78.9261719,47.6853082 C91.9632089,40.7130244 104.894658,37 140.555408,37 Z" id="Regular---Large" fill="#FAF9F1"></path>
        <g id="-logo" transform="translate(50, 50)" xlink:href="#path-2">
            <path d="M178.378195,37.5006397 C194.317612,37.508212 205.710095,37.6030881 214.45125,38.7544875 C223.560375,39.9543 228.38325,42.14895 231.819,45.51495 C235.25475,48.8810625 237.494625,53.60685 238.71975,62.5311375 C239.894326,71.095057 239.991556,82.25634 239.999341,97.8727708 L239.999977,100.468253 L240,101.3514 L240,189.526875 L95.5594132,189.526715 C86.5223119,189.530792 80.140998,189.630113 74.6136375,191.081625 C69.300825,192.4755 64.3725375,194.753625 60,197.74725 L60.0006535,97.8727709 C60.0083883,82.2563405 60.1052695,71.0950646 61.280475,62.53125 C62.50515,53.60685 64.7451375,48.8810625 68.180775,45.51495 C71.616525,42.14895 76.4401875,39.9543 85.5490875,38.7544875 C94.2901373,37.6030881 105.682418,37.508212 121.621808,37.5006397 Z M140.656809,92.539823 C138.583879,92.539823 136.725317,93.7879789 135.982551,95.6789181 L127.997861,115.957117 C127.671099,116.783151 127.002803,117.436132 126.157397,117.755406 L105.409618,125.551251 C103.47433,126.276997 102.196901,128.092968 102.196901,130.118396 C102.196901,132.143823 103.47433,133.959795 105.409618,134.68554 L126.163405,142.487256 C127.008811,142.80653 127.677107,143.459511 128.003869,144.285545 L135.982551,164.557874 C136.720499,166.451391 138.583162,167.69902 140.656809,167.688798 C142.730457,167.69902 144.59312,166.451391 145.331068,164.557874 L153.315758,144.279674 C153.64252,143.453641 154.310816,142.800659 155.156222,142.481386 L175.904001,134.68554 C177.807307,133.978806 179.077026,132.209367 179.108448,130.220149 C179.125079,128.119832 177.793462,126.23429 175.777832,125.504289 L155.150214,117.749536 C154.304808,117.430262 153.636512,116.77728 153.30975,115.951247 L145.331068,95.6789181 C144.588302,93.7879789 142.72974,92.539823 140.656809,92.539823 Z M182.098294,75.7705518 C181.57182,74.4305119 180.180174,73.6119166 178.721773,73.7844114 C177.519863,73.9466784 176.506524,74.7413291 176.084242,75.8527369 L171.544164,87.3880052 C171.381438,87.8020008 171.046635,88.1291317 170.62293,88.2881279 L158.733011,92.7574328 C157.496503,93.2229664 156.68083,94.3841585 156.68083,95.6789181 C156.68083,96.9736776 157.496503,98.1348698 158.733011,98.6004033 L170.62293,103.069708 C171.046635,103.228704 171.381438,103.555835 171.544164,103.969831 L176.118288,115.587284 C176.593908,116.796445 177.78252,117.594949 179.108291,117.594949 C180.434062,117.594949 181.622674,116.796445 182.098294,115.587284 L186.672418,103.969831 C186.835143,103.555835 187.169947,103.228704 187.593652,103.069708 L199.483571,98.6004033 C200.720079,98.1348698 201.535752,96.9736776 201.535752,95.6789181 C201.535752,94.3841585 200.720079,93.2229664 199.483571,92.7574328 L187.593652,88.2881279 C187.169947,88.1291317 186.835143,87.8020008 186.672418,87.3880052 Z M119.366304,69.3405447 C118.882423,68.1130405 117.606579,67.3639473 116.270159,67.5226882 C115.167597,67.6680073 114.23752,68.3968252 113.852922,69.4168595 L110.506442,77.9191056 C110.357768,78.2981631 110.051261,78.5976462 109.663313,78.7429135 L100.883558,82.0420589 C99.7495468,82.4687486 99.0014158,83.5335596 99.0014158,84.7209024 C99.0014158,85.9082452 99.7495468,86.9730562 100.883558,87.3997459 L109.663313,90.6988913 C110.051686,90.8435183 110.358423,91.1432265 110.506442,91.5226993 L113.882963,100.10126 C114.319537,101.20943 115.409349,101.940641 116.624633,101.940641 C117.839918,101.940641 118.92973,101.20943 119.366304,100.10126 L122.742825,91.5226993 C122.890844,91.1432265 123.197581,90.8435183 123.585954,90.6988913 L132.365709,87.3997459 C133.49972,86.9730562 134.247851,85.9082452 134.247851,84.7209024 C134.247851,83.5335596 133.49972,82.4687486 132.365709,82.0420589 L123.585954,78.7429135 C123.198006,78.5976462 122.891499,78.2981631 122.742825,77.9191056 Z" id="Combined-Shape" fill="#CB6441"></path>
            <path d="M112.758563,207.769875 L99.0758625,207.769875 C86.9319375,207.769875 82.6864125,207.848625 79.433025,208.7025 C70.5035625,211.047 63.3849,217.5495 60.3321,226.00275 C60.520875,230.30475 60.8166375,234.08925 61.280475,237.46875 C62.50515,246.393375 64.7451375,251.1195 68.180775,254.4855 C71.616525,257.8515 76.4401875,260.04525 85.5490875,261.245625 C94.92585,262.480875 107.3535,262.5 125.172375,262.5 L174.827625,262.5 C192.6465,262.5 205.074375,262.480875 214.45125,261.245625 C223.560375,260.04525 228.38325,257.8515 231.819,254.4855 C235.25475,251.1195 237.494625,246.393375 238.71975,237.46875 C239.748,229.974 239.9505,220.489125 239.989875,207.769875 L162.41325,207.769875 L162.41325,241.594125 C162.41325,244.946625 162.41325,246.62175 161.2365,247.299 C160.058625,247.97625 158.44875,247.227 155.227875,245.7285 L139.806375,238.552125 C138.717375,238.04475 138.17175,237.791625 137.58675,237.791625 C137.000625,237.791625 136.455,238.04475 135.366,238.552125 L119.944725,245.7285 C116.723963,247.227 115.113638,247.97625 113.9361,247.299 C112.758563,246.62175 112.758563,244.946625 112.758563,241.594125 L112.758563,207.769875 Z" id="Path" fill="#3D3826"></path>
        </g>
    </g>
</svg>