<?xml version="1.0" encoding="UTF-8"?>
<svg width="400px" height="400px" viewBox="0 0 400 400" version="1.1" xmlns="http://www.w3.org/2000/svg" xmlns:xlink="http://www.w3.org/1999/xlink">
    <title>typenote_dark_transparent</title>
    <defs>
        <path d="M0,0 L400,0 L400,400 L0,400 L0,0 Z" id="path-1"></path>
    </defs>
    <g id="typenote_dark_transparent" stroke="none" fill="none" xlink:href="#path-1">
        <path d="M305,140 C329.8535,140 350,119.85275 350,95 C350,70.14725 329.8535,50 305,50 C280.1465,50 260,70.14725 260,95 C260,119.85275 280.1465,140 305,140 Z" id="Path" fill="#FAF9F1" fill-rule="evenodd"></path>
        <path d="M317,161.3 C316.7,161.3 316.4,161.45 316.1,161.45 C314.6,161.75 313.1,161.9 311.45,162.2 C305.15,162.8 298.4,162.5 291.5,161.15 C289.7,160.7 288.2,160.4 286.55,159.8 C281.6,158.6 276.95,156.65 272.6,154.1 C270.8,153.2 269,152 267.35,150.95 C260.15,146 254,139.85 249.05,132.65 C248,131 246.8,129.2 245.9,127.4 C243.35,123.05 241.4,118.4 240.2,113.45 C239.6,111.8 239.3,110.3 238.85,108.5 C237.5,101.6 237.2,94.85 237.8,88.55 C238.1,86.9 238.25,85.4 238.55,83.9 C238.55,83.6 238.7,83.3 238.7,83 C240.5,73.7 233.6,65 224,65 L132.8,65 C130.7,65 128.6,65.15 126.65,65.3 C124.85,65.45 123.2,65.6 121.4,65.9 C119.6,66.05 117.8,66.35 116.15,66.65 C80,71.9 56.9,94.85 51.65,131.15 C51.35,132.8 51.05,134.6 50.9,136.4 C50.6,138.2 50.45,139.85 50.3,141.65 C50.15,143.6 50,145.7 50,147.8 L50,267.2 C50,269.3 50.15,271.4 50.3,273.35 C50.45,275.15 50.6,276.8 50.9,278.6 C51.05,280.4 51.35,282.2 51.65,283.85 C56.9,320.15 80,343.1 116.15,348.35 C117.8,348.65 119.6,348.95 121.4,349.1 C123.2,349.4 124.85,349.55 126.65,349.7 C128.6,349.85 130.7,350 132.8,350 L252.2,350 C254.3,350 256.4,349.85 258.35,349.7 C260.15,349.55 261.8,349.4 263.6,349.1 C265.4,348.95 267.2,348.65 268.85,348.35 C305,343.1 328.1,320.15 333.35,283.85 C333.65,282.2 333.95,280.4 334.1,278.6 C334.4,276.8 334.55,275.15 334.7,273.35 C334.85,271.4 335,269.3 335,267.2 L335,176 C335,166.4 326.3,159.5 317,161.3 Z M121.25,207.5 L196.25,207.5 C202.4,207.5 207.5,212.6 207.5,218.75 C207.5,224.9 202.4,230 196.25,230 L121.25,230 C115.1,230 110,224.9 110,218.75 C110,212.6 115.1,207.5 121.25,207.5 Z M256.25,290 L121.25,290 C115.1,290 110,284.9 110,278.75 C110,272.6 115.1,267.5 121.25,267.5 L256.25,267.5 C262.4,267.5 267.5,272.6 267.5,278.75 C267.5,284.9 262.4,290 256.25,290 Z" id="Shape" fill="#D77757" fill-rule="nonzero"></path>
    </g>
</svg>