<?xml version="1.0" encoding="UTF-8"?>
<svg width="400px" height="400px" viewBox="0 0 400 400" version="1.1" xmlns="http://www.w3.org/2000/svg" xmlns:xlink="http://www.w3.org/1999/xlink">
    <title>typenote_light_macos</title>
    <defs>
        <path d="M0,0 L400,0 L400,400 L0,400 L0,0 Z" id="path-1"></path>
        <path d="M0,0 L300,0 L300,300 L0,300 L0,0 Z" id="path-2"></path>
    </defs>
    <g id="typenote_light_macos" stroke="none" fill="none" xlink:href="#path-1">
        <path d="M140.555408,37 L260.444592,37 C296.105342,37 309.036791,40.7130244 322.073828,47.6853082 C335.110865,54.6575919 345.342408,64.8891348 352.314692,77.9261719 C359.286976,90.9632089 363,103.894658 363,139.555408 L363,259.444592 C363,295.105342 359.286976,308.036791 352.314692,321.073828 C345.342408,334.110865 335.110865,344.342408 322.073828,351.314692 C309.036791,358.286976 296.105342,362 260.444592,362 L140.555408,362 C104.894658,362 91.9632089,358.286976 78.9261719,351.314692 C65.8891348,344.342408 55.6575919,334.110865 48.6853082,321.073828 C41.7130244,308.036791 38,295.105342 38,259.444592 L38,139.555408 C38,103.894658 41.7130244,90.9632089 48.6853082,77.9261719 C55.6575919,64.8891348 65.8891348,54.6575919 78.9261719,47.6853082 C91.9632089,40.7130244 104.894658,37 140.555408,37 Z" id="Regular---Large" fill="#FAF9F1" fill-rule="evenodd"></path>
        <g id="-logo" transform="translate(50, 50)" xlink:href="#path-2">
            <path d="M228.75,105 C247.390125,105 262.5,89.8895625 262.5,71.25 C262.5,52.6104375 247.390125,37.5 228.75,37.5 C210.109875,37.5 195,52.6104375 195,71.25 C195,89.8895625 210.109875,105 228.75,105 Z" id="Path" fill="#3D3826" fill-rule="evenodd"></path>
            <path d="M237.75,120.975 C237.525,120.975 237.3,121.0875 237.075,121.0875 C235.95,121.3125 234.825,121.425 233.5875,121.65 C228.8625,122.1 223.8,121.875 218.625,120.8625 C217.275,120.525 216.15,120.3 214.9125,119.85 C211.2,118.95 207.7125,117.4875 204.45,115.575 C203.1,114.9 201.75,114 200.5125,113.2125 C195.1125,109.5 190.5,104.8875 186.7875,99.4875 C186,98.25 185.1,96.9 184.425,95.55 C182.5125,92.2875 181.05,88.8 180.15,85.0875 C179.7,83.85 179.475,82.725 179.1375,81.375 C178.125,76.2 177.9,71.1375 178.35,66.4125 C178.575,65.175 178.6875,64.05 178.9125,62.925 C178.9125,62.7 179.025,62.475 179.025,62.25 C180.375,55.275 175.2,48.75 168,48.75 L99.6,48.75 C98.025,48.75 96.45,48.8625 94.9875,48.975 C93.6375,49.0875 92.4,49.2 91.05,49.425 C89.7,49.5375 88.35,49.7625 87.1125,49.9875 C60,53.925 42.675,71.1375 38.7375,98.3625 C38.5125,99.6 38.2875,100.95 38.175,102.3 C37.95,103.65 37.8375,104.8875 37.725,106.2375 C37.6125,107.7 37.5,109.275 37.5,110.85 L37.5,200.4 C37.5,201.975 37.6125,203.55 37.725,205.0125 C37.8375,206.3625 37.95,207.6 38.175,208.95 C38.2875,210.3 38.5125,211.65 38.7375,212.8875 C42.675,240.1125 60,257.325 87.1125,261.2625 C88.35,261.4875 89.7,261.7125 91.05,261.825 C92.4,262.05 93.6375,262.1625 94.9875,262.275 C96.45,262.3875 98.025,262.5 99.6,262.5 L189.15,262.5 C190.725,262.5 192.3,262.3875 193.7625,262.275 C195.1125,262.1625 196.35,262.05 197.7,261.825 C199.05,261.7125 200.4,261.4875 201.6375,261.2625 C228.75,257.325 246.075,240.1125 250.0125,212.8875 C250.2375,211.65 250.4625,210.3 250.575,208.95 C250.8,207.6 250.9125,206.3625 251.025,205.0125 C251.1375,203.55 251.25,201.975 251.25,200.4 L251.25,132 C251.25,124.8 244.725,119.625 237.75,120.975 Z M90.9375,155.625 L147.1875,155.625 C151.8,155.625 155.625,159.45 155.625,164.0625 C155.625,168.675 151.8,172.5 147.1875,172.5 L90.9375,172.5 C86.325,172.5 82.5,168.675 82.5,164.0625 C82.5,159.45 86.325,155.625 90.9375,155.625 Z M192.1875,217.5 L90.9375,217.5 C86.325,217.5 82.5,213.675 82.5,209.0625 C82.5,204.45 86.325,200.625 90.9375,200.625 L192.1875,200.625 C196.8,200.625 200.625,204.45 200.625,209.0625 C200.625,213.675 196.8,217.5 192.1875,217.5 Z" id="Shape" fill="#CB6441" fill-rule="nonzero"></path>
        </g>
    </g>
</svg>